<svg width="50" height="50" viewBox="0 0 50 50" fill="none" xmlns="http://www.w3.org/2000/svg">
    <path d="M25.0172 3.125C28.1501 3.12812 31.2797 3.80781 34.1219 5.11406C37.7485 6.78281 40.9016 9.46562 43.136 12.7719C45.1532 15.7547 46.4141 19.2344 46.7688 22.8359C47.1422 26.6234 46.5157 30.5047 44.9547 33.9703C43.2079 37.8453 40.311 41.1891 36.7047 43.4797C33.8407 45.2984 30.5454 46.4359 27.1641 46.7687C23.6985 47.1094 20.1485 46.6172 16.9188 45.3312C12.3032 43.4937 8.37193 40.0531 5.92818 35.7141C4.46881 33.1234 3.55006 30.2359 3.24381 27.2859C2.93443 24.3234 3.23131 21.2953 4.12506 18.45C5.2735 14.7922 7.41412 11.4453 10.2454 8.85469C13.1626 6.18906 16.8204 4.32187 20.7126 3.54687C22.1001 3.27031 23.5188 3.12969 24.9297 3.125C24.9594 3.125 24.9876 3.125 25.0172 3.125ZM24.9844 6.25C22.2985 6.25312 19.6219 6.83281 17.1844 7.95312C14.011 9.4125 11.2657 11.775 9.34381 14.6859C7.65787 17.2359 6.611 20.2 6.32975 23.2594C6.07193 26.0562 6.44381 28.9172 7.42818 31.5516C8.68443 34.9141 10.9266 37.8922 13.8079 40.0406C16.5079 42.0547 19.7579 43.3234 23.1266 43.6578C26.1094 43.9531 29.161 43.5312 31.9376 42.4234C34.9672 41.2141 37.6672 39.1969 39.6969 36.6375C41.4766 34.3953 42.736 31.7297 43.3329 28.9484C44.0141 25.7734 43.8579 22.4219 42.8766 19.3312C41.6844 15.5734 39.2844 12.2437 36.1235 9.90937C33.9219 8.28281 31.361 7.14531 28.6782 6.61094C27.4876 6.37344 26.2719 6.25469 25.061 6.25C25.036 6.25 25.0094 6.25 24.9844 6.25Z" fill="#42A5F5"/>
    <path d="M25 43.75C35.3553 43.75 43.75 35.3553 43.75 25C43.75 14.6447 35.3553 6.25 25 6.25C14.6447 6.25 6.25 14.6447 6.25 25C6.25 35.3553 14.6447 43.75 25 43.75Z" fill="#F2F2F2"/>
    <path d="M23.3234 24.7781L21.064 16.3485C21.0531 16.2985 21.0406 16.25 21.0312 16.1985C20.9406 15.6453 21.1718 15.0516 21.6218 14.7047C21.7437 14.611 21.8797 14.536 22.0234 14.4828C22.1187 14.4453 22.2187 14.425 22.3187 14.4031C22.3703 14.3969 22.4203 14.3891 22.4718 14.386C23.0312 14.3485 23.6 14.636 23.9 15.1188C23.9547 15.2063 24 15.2985 24.0359 15.3938C24.0547 15.4422 24.0672 15.4906 24.0828 15.5406L26.5093 24.5953C26.5375 24.7281 26.55 24.761 26.5593 24.8985L26.5609 24.9297C26.5703 25.1235 26.5422 25.3188 26.4797 25.5031C26.4359 25.6328 26.4156 25.661 26.3531 25.7813L23.0359 31.5219C23.0078 31.5641 22.9828 31.6078 22.9515 31.65C22.6531 32.0656 22.1422 32.3188 21.6312 32.3016C21.0718 32.2828 20.5328 31.9422 20.2812 31.4297C20.1 31.0625 20.0718 30.6235 20.2031 30.236C20.2468 30.1078 20.2672 30.0781 20.3297 29.9578L23.3234 24.7781Z" fill="#262626"/>
    <path d="M25 18.9625L26.5094 24.5953C26.5375 24.7282 26.55 24.761 26.5594 24.8985L26.5609 24.9297C26.5703 25.1235 26.5422 25.3188 26.4797 25.5032C26.4359 25.6328 26.4156 25.661 26.3531 25.7813L25 28.1219V18.9625Z" fill="#262626"/>
    <path d="M39.0625 26.5625C39.9254 26.5625 40.625 25.8629 40.625 25C40.625 24.1371 39.9254 23.4375 39.0625 23.4375C38.1996 23.4375 37.5 24.1371 37.5 25C37.5 25.8629 38.1996 26.5625 39.0625 26.5625Z" fill="#262626"/>
    <path d="M25 40.625C25.8629 40.625 26.5625 39.9254 26.5625 39.0625C26.5625 38.1996 25.8629 37.5 25 37.5C24.1371 37.5 23.4375 38.1996 23.4375 39.0625C23.4375 39.9254 24.1371 40.625 25 40.625Z" fill="#262626"/>
    <path d="M25 12.5C25.8629 12.5 26.5625 11.8004 26.5625 10.9375C26.5625 10.0746 25.8629 9.375 25 9.375C24.1371 9.375 23.4375 10.0746 23.4375 10.9375C23.4375 11.8004 24.1371 12.5 25 12.5Z" fill="#262626"/>
    <path fill-rule="evenodd" clip-rule="evenodd" d="M25 37.5C25.8625 37.5 26.5625 38.2 26.5625 39.0625C26.5625 39.925 25.8625 40.625 25 40.625V37.5Z" fill="#262626"/>
    <path fill-rule="evenodd" clip-rule="evenodd" d="M25 9.375C25.8625 9.375 26.5625 10.075 26.5625 10.9375C26.5625 11.8 25.8625 12.5 25 12.5V9.375Z" fill="#262626"/>
    <path d="M10.9375 26.5625C11.8004 26.5625 12.5 25.8629 12.5 25C12.5 24.1371 11.8004 23.4375 10.9375 23.4375C10.0746 23.4375 9.375 24.1371 9.375 25C9.375 25.8629 10.0746 26.5625 10.9375 26.5625Z" fill="#262626"/>
</svg>